<svg width="40" height="40" viewBox="0 0 40 40" fill="none" xmlns="http://www.w3.org/2000/svg">
<rect width="40" height="40" rx="20" fill="#002347"/>
<path d="M16.52 21.8461C15.48 21.8461 14.632 20.9011 14.632 19.7451C14.632 18.5891 15.459 17.6431 16.521 17.6431C17.571 17.6431 18.431 18.5881 18.41 19.7451C18.41 20.9011 17.571 21.8461 16.52 21.8461ZM23.494 21.8451C22.454 21.8451 21.604 20.9001 21.604 19.7441C21.604 18.5881 22.433 17.6421 23.494 17.6421C24.544 17.6421 25.404 18.5871 25.384 19.7441C25.384 20.9001 24.555 21.8451 23.494 21.8451ZM18.125 12.3211L17.817 11.7581L17.183 11.8641C15.7463 12.1042 14.348 12.5346 13.025 13.1441L12.797 13.2491L12.655 13.4591C10.042 17.3121 9.32496 21.1071 9.67996 24.8341L9.71896 25.2411L10.049 25.4811C11.5861 26.6091 13.303 27.4689 15.127 28.0241L15.917 28.2661L17.03 25.5501C18.94 26.0221 21.06 26.0221 22.969 25.5501L24.076 28.2671L24.866 28.0251C26.6915 27.4713 28.4094 26.6107 29.946 25.4801L30.273 25.2421L30.313 24.8401C30.749 20.5201 29.616 16.7571 27.355 13.4561L27.213 13.2481L26.985 13.1441C25.6624 12.5372 24.2657 12.1068 22.831 11.8641L22.213 11.7611L21.899 12.3031C21.811 12.4531 21.722 12.6231 21.636 12.7961C20.5511 12.6849 19.4578 12.6849 18.373 12.7961C18.288 12.6261 18.203 12.4621 18.125 12.3211ZM14.715 24.6101C14.912 24.7241 15.12 24.8361 15.325 24.9381L14.876 26.0341C13.6615 25.5916 12.5092 24.9939 11.448 24.2561C11.223 21.1181 11.861 17.9511 14.012 14.6861C14.9198 14.2866 15.8661 13.9807 16.836 13.7731C16.896 13.8981 16.952 14.0211 16.998 14.1291L17.271 14.7721L17.963 14.6711C19.319 14.4723 20.6969 14.4723 22.053 14.6711L22.743 14.7711L23.015 14.1291C23.062 14.0171 23.117 13.8951 23.175 13.7731C24.152 13.9831 25.098 14.2931 26.003 14.6881C27.878 17.5081 28.824 20.6541 28.549 24.2551C27.4871 24.9934 26.3342 25.5914 25.119 26.0341L24.674 24.9391C24.88 24.8371 25.088 24.7251 25.287 24.6101C25.777 24.3281 26.304 23.9761 26.64 23.6401L25.36 22.3601C25.197 22.5241 24.837 22.7801 24.383 23.0421C23.939 23.2981 23.498 23.5051 23.216 23.5981C21.213 24.2611 18.788 24.2611 16.784 23.5981C16.503 23.5051 16.062 23.2981 15.618 23.0421C15.164 22.7811 14.804 22.5241 14.64 22.3601L13.36 23.6401C13.697 23.9761 14.225 24.3281 14.715 24.6101Z" fill="#F8FBFB"/>
</svg>
