<svg width="40" height="40" viewBox="0 0 40 40" fill="none" xmlns="http://www.w3.org/2000/svg">
<rect width="40" height="40" rx="20" fill="#002347"/>
<path fill-rule="evenodd" clip-rule="evenodd" d="M18.9341 10.9341C20.0125 9.8558 21.475 9.25 23 9.25H26C26.4142 9.25 26.75 9.58579 26.75 10V14C26.75 14.4142 26.4142 14.75 26 14.75H23C22.9337 14.75 22.8701 14.7763 22.8232 14.8232C22.7763 14.8701 22.75 14.9337 22.75 15V17.25H26C26.231 17.25 26.449 17.3564 26.5912 17.5384C26.7333 17.7205 26.7836 17.9578 26.7276 18.1819L25.7276 22.1819C25.6441 22.5158 25.3442 22.75 25 22.75H22.75V30C22.75 30.4142 22.4142 30.75 22 30.75H18C17.5858 30.75 17.25 30.4142 17.25 30V22.75H15C14.5858 22.75 14.25 22.4142 14.25 22V18C14.25 17.5858 14.5858 17.25 15 17.25H17.25V15C17.25 13.475 17.8558 12.0125 18.9341 10.9341ZM23 10.75C21.8728 10.75 20.7918 11.1978 19.9948 11.9948C19.1978 12.7918 18.75 13.8728 18.75 15V18C18.75 18.4142 18.4142 18.75 18 18.75H15.75V21.25H18C18.4142 21.25 18.75 21.5858 18.75 22V29.25H21.25V22C21.25 21.5858 21.5858 21.25 22 21.25H24.4144L25.0394 18.75H22C21.5858 18.75 21.25 18.4142 21.25 18V15C21.25 14.5359 21.4344 14.0908 21.7626 13.7626C22.0908 13.4344 22.5359 13.25 23 13.25H25.25V10.75H23Z" fill="#E2E7E9"/>
</svg>
