<svg width="40" height="40" viewBox="0 0 40 40" fill="none" xmlns="http://www.w3.org/2000/svg">
<rect width="40" height="40" rx="20" fill="#002347"/>
<g clip-path="url(#clip0_5189_693)">
<path d="M20 10C25.523 10 30 14.477 30 20C30 25.523 25.523 30 20 30C18.298 30.0024 16.6237 29.5686 15.137 28.74L14.832 28.562L11.8 29.454C11.635 29.5026 11.4603 29.5083 11.2925 29.4705C11.1247 29.4327 10.9693 29.3526 10.8411 29.238C10.7129 29.1233 10.6161 28.9778 10.5599 28.8152C10.5037 28.6526 10.49 28.4784 10.52 28.309L10.546 28.2L11.438 25.168C10.4951 23.6093 9.99768 21.8218 10 20C10 14.477 14.477 10 20 10ZM20 12C18.5676 11.9997 17.1615 12.3841 15.9283 13.1128C14.6952 13.8416 13.6804 14.888 12.9898 16.1429C12.2992 17.3978 11.9582 18.8151 12.0024 20.2468C12.0466 21.6785 12.4743 23.0721 13.241 24.282C13.439 24.594 13.524 24.978 13.457 25.359L13.418 25.522L12.977 27.023L14.478 26.582C14.911 26.454 15.361 26.532 15.718 26.759C16.7663 27.4228 17.9547 27.8336 19.1891 27.959C20.4236 28.0844 21.6703 27.921 22.8307 27.4816C23.9911 27.0422 25.0334 26.3389 25.8752 25.4273C26.717 24.5157 27.3351 23.4208 27.6809 22.2291C28.0266 21.0374 28.0904 19.7817 27.8672 18.5611C27.6441 17.3405 27.14 16.1886 26.395 15.1964C25.6499 14.2042 24.6843 13.3988 23.5744 12.8441C22.4645 12.2893 21.2408 12.0004 20 12ZM17.102 15.184C17.2128 15.1365 17.334 15.1185 17.4539 15.1317C17.5737 15.1448 17.6881 15.1887 17.786 15.259C18.29 15.627 18.69 16.121 19.034 16.603L19.361 17.077L19.514 17.302C19.6026 17.431 19.6461 17.5856 19.6378 17.7418C19.6295 17.8981 19.5698 18.0472 19.468 18.166L19.393 18.242L18.469 18.928C18.425 18.9606 18.3941 19.0078 18.3819 19.0611C18.3696 19.1145 18.3767 19.1705 18.402 19.219C18.612 19.599 18.983 20.166 19.409 20.592C19.836 21.018 20.429 21.414 20.835 21.647C20.923 21.697 21.029 21.681 21.101 21.616L21.139 21.571L21.74 20.656C21.8502 20.5088 22.0131 20.4101 22.1946 20.3806C22.3761 20.3512 22.5619 20.3932 22.713 20.498L23.256 20.877C23.796 21.262 24.315 21.676 24.726 22.201C24.802 22.2997 24.8504 22.4168 24.866 22.5404C24.8817 22.664 24.8641 22.7895 24.815 22.904C24.419 23.828 23.416 24.615 22.374 24.577L22.215 24.567L22.024 24.549L21.916 24.535L21.678 24.495C20.754 24.321 19.273 23.797 17.738 22.263C16.204 20.728 15.68 19.247 15.506 18.323L15.466 18.085L15.441 17.877L15.428 17.702L15.424 17.627C15.386 16.583 16.177 15.58 17.102 15.184Z" fill="#F8FBFB"/>
</g>
<defs>
<clipPath id="clip0_5189_693">
<rect width="24" height="24" fill="white" transform="translate(8 8)"/>
</clipPath>
</defs>
</svg>
